<mxfile host="app.diagrams.net" modified="2023-09-12T07:54:38.708Z" agent="Mozilla/5.0 (Windows NT 10.0; Win64; x64) AppleWebKit/537.36 (KHTML, like Gecko) Chrome/115.0.0.0 Safari/537.36 Edg/115.0.1901.203" etag="L_Az_g1iEiZG7eL0gqgJ" version="21.7.2" type="github">
  <diagram name="Page-1" id="EErB0_9Ms5p8q_dwDp6E">
    <mxGraphModel dx="660" dy="459" grid="0" gridSize="10" guides="1" tooltips="1" connect="1" arrows="1" fold="1" page="1" pageScale="1" pageWidth="850" pageHeight="1100" background="#000000" math="0" shadow="0">
      <root>
        <mxCell id="0" />
        <mxCell id="1" parent="0" />
        <mxCell id="7mGdTCOJ7hVLghNPMvug-2" value="&lt;font color=&quot;#ffffff&quot;&gt;Gluster2&lt;/font&gt;" style="fontStyle=0;verticalAlign=top;align=center;spacingTop=-2;fillColor=none;rounded=0;whiteSpace=wrap;html=1;strokeColor=#919191;strokeWidth=2;dashed=1;container=1;collapsible=0;expand=0;recursiveResize=0;" vertex="1" parent="1">
          <mxGeometry x="387" y="70" width="212" height="273" as="geometry" />
        </mxCell>
        <mxCell id="7mGdTCOJ7hVLghNPMvug-4" value="" style="sketch=0;pointerEvents=1;shadow=0;dashed=0;html=1;strokeColor=none;fillColor=#505050;labelPosition=center;verticalLabelPosition=bottom;verticalAlign=top;outlineConnect=0;align=center;shape=mxgraph.office.servers.server_generic;" vertex="1" parent="7mGdTCOJ7hVLghNPMvug-2">
          <mxGeometry x="106" y="206" width="27" height="52" as="geometry" />
        </mxCell>
        <mxCell id="7mGdTCOJ7hVLghNPMvug-6" value="&lt;font color=&quot;#ffffff&quot;&gt;&lt;font style=&quot;font-size: 9px;&quot;&gt;SVGLUSTER01&lt;/font&gt;&lt;br&gt;&lt;/font&gt;" style="text;html=1;strokeColor=none;fillColor=none;align=center;verticalAlign=middle;whiteSpace=wrap;rounded=0;" vertex="1" parent="7mGdTCOJ7hVLghNPMvug-2">
          <mxGeometry x="143" y="249" width="60" height="30" as="geometry" />
        </mxCell>
        <mxCell id="7mGdTCOJ7hVLghNPMvug-11" value="&lt;font color=&quot;#ffffff&quot;&gt;&lt;font style=&quot;font-size: 9px;&quot;&gt;/dev/sdb&lt;/font&gt;&lt;br&gt;&lt;/font&gt;" style="text;html=1;strokeColor=none;fillColor=none;align=center;verticalAlign=middle;whiteSpace=wrap;rounded=0;" vertex="1" parent="7mGdTCOJ7hVLghNPMvug-2">
          <mxGeometry x="126" y="170" width="60" height="30" as="geometry" />
        </mxCell>
        <mxCell id="7mGdTCOJ7hVLghNPMvug-1" value="&lt;font color=&quot;#ffffff&quot;&gt;Gluster1&lt;/font&gt;" style="fontStyle=0;verticalAlign=top;align=center;spacingTop=-2;fillColor=none;rounded=0;whiteSpace=wrap;html=1;strokeColor=#919191;strokeWidth=2;dashed=1;container=1;collapsible=0;expand=0;recursiveResize=0;" vertex="1" parent="1">
          <mxGeometry x="103" y="73" width="212" height="270" as="geometry" />
        </mxCell>
        <mxCell id="7mGdTCOJ7hVLghNPMvug-5" value="&lt;font color=&quot;#ffffff&quot;&gt;&lt;font style=&quot;font-size: 9px;&quot;&gt;/dev/sdb&lt;/font&gt;&lt;br&gt;&lt;/font&gt;" style="text;html=1;strokeColor=none;fillColor=none;align=center;verticalAlign=middle;whiteSpace=wrap;rounded=0;" vertex="1" parent="7mGdTCOJ7hVLghNPMvug-1">
          <mxGeometry x="115" y="168" width="60" height="30" as="geometry" />
        </mxCell>
        <mxCell id="7mGdTCOJ7hVLghNPMvug-10" value="&lt;font color=&quot;#ffffff&quot;&gt;&lt;font style=&quot;font-size: 9px;&quot;&gt;SVGLUSTER01&lt;/font&gt;&lt;br&gt;&lt;/font&gt;" style="text;html=1;strokeColor=none;fillColor=none;align=center;verticalAlign=middle;whiteSpace=wrap;rounded=0;" vertex="1" parent="7mGdTCOJ7hVLghNPMvug-1">
          <mxGeometry x="132" y="244" width="60" height="30" as="geometry" />
        </mxCell>
        <mxCell id="7mGdTCOJ7hVLghNPMvug-16" value="&lt;font color=&quot;#ffffff&quot;&gt;&lt;font size=&quot;1&quot;&gt;/root/gluster&lt;/font&gt;&lt;br&gt;&lt;/font&gt;" style="text;html=1;strokeColor=none;fillColor=none;align=center;verticalAlign=middle;whiteSpace=wrap;rounded=0;" vertex="1" parent="7mGdTCOJ7hVLghNPMvug-1">
          <mxGeometry x="28" y="134" width="60" height="30" as="geometry" />
        </mxCell>
        <mxCell id="7mGdTCOJ7hVLghNPMvug-14" value="" style="sketch=0;pointerEvents=1;shadow=0;dashed=0;html=1;strokeColor=none;fillColor=#505050;labelPosition=center;verticalLabelPosition=bottom;verticalAlign=top;outlineConnect=0;align=center;shape=mxgraph.office.concepts.folder_open;" vertex="1" parent="7mGdTCOJ7hVLghNPMvug-1">
          <mxGeometry x="7" y="134" width="25" height="19" as="geometry" />
        </mxCell>
        <mxCell id="7mGdTCOJ7hVLghNPMvug-13" value="" style="fontStyle=0;verticalAlign=top;align=center;spacingTop=-2;fillColor=none;rounded=0;whiteSpace=wrap;html=1;strokeColor=#00882B;strokeWidth=2;container=1;collapsible=0;expand=0;recursiveResize=0;" vertex="1" parent="1">
          <mxGeometry x="75" y="233" width="566" height="39" as="geometry" />
        </mxCell>
        <mxCell id="7mGdTCOJ7hVLghNPMvug-8" value="" style="sketch=0;pointerEvents=1;shadow=0;dashed=0;html=1;strokeColor=none;fillColor=#505050;labelPosition=center;verticalLabelPosition=bottom;verticalAlign=top;outlineConnect=0;align=center;shape=mxgraph.office.concepts.node_generic;" vertex="1" parent="7mGdTCOJ7hVLghNPMvug-13">
          <mxGeometry x="128.5" y="3" width="24" height="31" as="geometry" />
        </mxCell>
        <mxCell id="7mGdTCOJ7hVLghNPMvug-3" value="" style="sketch=0;pointerEvents=1;shadow=0;dashed=0;html=1;strokeColor=none;fillColor=#505050;labelPosition=center;verticalLabelPosition=bottom;verticalAlign=top;outlineConnect=0;align=center;shape=mxgraph.office.servers.server_generic;" vertex="1" parent="7mGdTCOJ7hVLghNPMvug-13">
          <mxGeometry x="127" y="46" width="27" height="52" as="geometry" />
        </mxCell>
        <mxCell id="7mGdTCOJ7hVLghNPMvug-9" value="" style="sketch=0;pointerEvents=1;shadow=0;dashed=0;html=1;strokeColor=none;fillColor=#505050;labelPosition=center;verticalLabelPosition=bottom;verticalAlign=top;outlineConnect=0;align=center;shape=mxgraph.office.concepts.node_generic;" vertex="1" parent="7mGdTCOJ7hVLghNPMvug-13">
          <mxGeometry x="424" y="3" width="24" height="31" as="geometry" />
        </mxCell>
        <mxCell id="7mGdTCOJ7hVLghNPMvug-20" value="&lt;font color=&quot;#ffffff&quot;&gt;&lt;font size=&quot;1&quot;&gt;/root/gluster&lt;/font&gt;&lt;br&gt;&lt;/font&gt;" style="text;html=1;strokeColor=none;fillColor=none;align=center;verticalAlign=middle;whiteSpace=wrap;rounded=0;" vertex="1" parent="7mGdTCOJ7hVLghNPMvug-13">
          <mxGeometry x="338" y="-24" width="60" height="30" as="geometry" />
        </mxCell>
        <mxCell id="7mGdTCOJ7hVLghNPMvug-21" value="" style="sketch=0;pointerEvents=1;shadow=0;dashed=0;html=1;strokeColor=none;fillColor=#505050;labelPosition=center;verticalLabelPosition=bottom;verticalAlign=top;outlineConnect=0;align=center;shape=mxgraph.office.concepts.folder_open;" vertex="1" parent="7mGdTCOJ7hVLghNPMvug-13">
          <mxGeometry x="317" y="-24" width="25" height="19" as="geometry" />
        </mxCell>
      </root>
    </mxGraphModel>
  </diagram>
</mxfile>
